<mxfile host="app.diagrams.net" modified="2024-04-16T08:58:28.079Z" agent="Mozilla/5.0 (X11; Ubuntu; Linux x86_64; rv:124.0) Gecko/20100101 Firefox/124.0" etag="Dp40yljxEu43ebO5QdSW" version="24.2.1" type="github">
  <diagram name="Page-1" id="MnvfKodLOLrygT96N3CB">
    <mxGraphModel dx="402" dy="288" grid="1" gridSize="10" guides="1" tooltips="1" connect="1" arrows="1" fold="1" page="1" pageScale="1" pageWidth="1169" pageHeight="827" math="0" shadow="0">
      <root>
        <mxCell id="0" />
        <mxCell id="1" parent="0" />
        <mxCell id="HTj_WNBuWgpRRIx-YaFq-4" style="edgeStyle=orthogonalEdgeStyle;rounded=0;orthogonalLoop=1;jettySize=auto;html=1;exitX=0.25;exitY=0;exitDx=0;exitDy=0;entryX=0.25;entryY=1;entryDx=0;entryDy=0;" parent="1" source="HTj_WNBuWgpRRIx-YaFq-1" target="HTj_WNBuWgpRRIx-YaFq-2" edge="1">
          <mxGeometry relative="1" as="geometry" />
        </mxCell>
        <mxCell id="aOoxcMdrR6GTIn57Y4t1-7" value="North 1" style="edgeLabel;html=1;align=center;verticalAlign=middle;resizable=0;points=[];" parent="HTj_WNBuWgpRRIx-YaFq-4" vertex="1" connectable="0">
          <mxGeometry x="0.1375" y="2" relative="1" as="geometry">
            <mxPoint as="offset" />
          </mxGeometry>
        </mxCell>
        <mxCell id="HTj_WNBuWgpRRIx-YaFq-1" value="Dell03/BNG" style="rounded=0;whiteSpace=wrap;html=1;" parent="1" vertex="1">
          <mxGeometry x="546.11" y="430" width="200" height="80" as="geometry" />
        </mxCell>
        <mxCell id="HTj_WNBuWgpRRIx-YaFq-5" style="edgeStyle=orthogonalEdgeStyle;rounded=0;orthogonalLoop=1;jettySize=auto;html=1;exitX=0.25;exitY=0;exitDx=0;exitDy=0;entryX=0.25;entryY=1;entryDx=0;entryDy=0;" parent="1" source="HTj_WNBuWgpRRIx-YaFq-2" target="HTj_WNBuWgpRRIx-YaFq-3" edge="1">
          <mxGeometry relative="1" as="geometry" />
        </mxCell>
        <mxCell id="HTj_WNBuWgpRRIx-YaFq-7" style="edgeStyle=orthogonalEdgeStyle;rounded=0;orthogonalLoop=1;jettySize=auto;html=1;exitX=0.75;exitY=0;exitDx=0;exitDy=0;" parent="1" source="HTj_WNBuWgpRRIx-YaFq-2" target="HTj_WNBuWgpRRIx-YaFq-6" edge="1">
          <mxGeometry relative="1" as="geometry" />
        </mxCell>
        <mxCell id="HTj_WNBuWgpRRIx-YaFq-2" value="Dell01/North Router 1" style="rounded=0;whiteSpace=wrap;html=1;" parent="1" vertex="1">
          <mxGeometry x="450" y="240" width="200" height="80" as="geometry" />
        </mxCell>
        <mxCell id="HTj_WNBuWgpRRIx-YaFq-3" value="200.41/North Server 11" style="rounded=0;whiteSpace=wrap;html=1;" parent="1" vertex="1">
          <mxGeometry x="360" y="80" width="200" height="80" as="geometry" />
        </mxCell>
        <mxCell id="aOoxcMdrR6GTIn57Y4t1-6" style="edgeStyle=orthogonalEdgeStyle;rounded=0;orthogonalLoop=1;jettySize=auto;html=1;exitX=0.4;exitY=0.1;exitDx=0;exitDy=0;exitPerimeter=0;entryX=0.5;entryY=1;entryDx=0;entryDy=0;" parent="1" source="HTj_WNBuWgpRRIx-YaFq-6" target="aOoxcMdrR6GTIn57Y4t1-5" edge="1">
          <mxGeometry relative="1" as="geometry">
            <Array as="points">
              <mxPoint x="643" y="80" />
              <mxPoint x="660" y="80" />
            </Array>
          </mxGeometry>
        </mxCell>
        <mxCell id="HTj_WNBuWgpRRIx-YaFq-6" value="Internet" style="ellipse;shape=cloud;whiteSpace=wrap;html=1;" parent="1" vertex="1">
          <mxGeometry x="595" y="80" width="120" height="80" as="geometry" />
        </mxCell>
        <mxCell id="HTj_WNBuWgpRRIx-YaFq-8" value="eno2" style="text;html=1;align=center;verticalAlign=middle;resizable=0;points=[];autosize=1;strokeColor=none;fillColor=none;" parent="1" vertex="1">
          <mxGeometry x="480" y="290" width="50" height="30" as="geometry" />
        </mxCell>
        <mxCell id="HTj_WNBuWgpRRIx-YaFq-9" value="&lt;font style=&quot;font-size: 13px;&quot;&gt;1/0/1&lt;/font&gt;" style="text;html=1;align=center;verticalAlign=middle;resizable=0;points=[];autosize=1;strokeColor=none;fillColor=none;" parent="1" vertex="1">
          <mxGeometry x="576.11" y="430" width="50" height="30" as="geometry" />
        </mxCell>
        <UserObject label="202.191.67.57" id="HTj_WNBuWgpRRIx-YaFq-10">
          <mxCell style="text;html=1;align=center;verticalAlign=middle;resizable=0;points=[];autosize=1;strokeColor=none;fillColor=none;" parent="1" vertex="1">
            <mxGeometry x="595" y="160" width="100" height="30" as="geometry" />
          </mxCell>
        </UserObject>
        <mxCell id="HTj_WNBuWgpRRIx-YaFq-11" value="eno4" style="text;html=1;align=center;verticalAlign=middle;resizable=0;points=[];autosize=1;strokeColor=none;fillColor=none;" parent="1" vertex="1">
          <mxGeometry x="480" y="240" width="50" height="30" as="geometry" />
        </mxCell>
        <mxCell id="HTj_WNBuWgpRRIx-YaFq-12" value="ens3f3" style="text;html=1;align=center;verticalAlign=middle;resizable=0;points=[];autosize=1;strokeColor=none;fillColor=none;" parent="1" vertex="1">
          <mxGeometry x="380" y="130" width="60" height="30" as="geometry" />
        </mxCell>
        <mxCell id="HTj_WNBuWgpRRIx-YaFq-13" value="North1 172.16.200.2/24" style="text;html=1;align=center;verticalAlign=middle;resizable=0;points=[];autosize=1;strokeColor=none;fillColor=none;" parent="1" vertex="1">
          <mxGeometry x="451.11" y="410" width="150" height="30" as="geometry" />
        </mxCell>
        <mxCell id="HTj_WNBuWgpRRIx-YaFq-14" value="172.16.200.1/24" style="text;html=1;align=center;verticalAlign=middle;resizable=0;points=[];autosize=1;strokeColor=none;fillColor=none;" parent="1" vertex="1">
          <mxGeometry x="385" y="320" width="110" height="30" as="geometry" />
        </mxCell>
        <UserObject label="202.191.67.60/29 (default route)" id="HTj_WNBuWgpRRIx-YaFq-15">
          <mxCell style="text;html=1;align=center;verticalAlign=middle;resizable=0;points=[];autosize=1;strokeColor=none;fillColor=none;" parent="1" vertex="1">
            <mxGeometry x="600" y="220" width="190" height="30" as="geometry" />
          </mxCell>
        </UserObject>
        <UserObject label="172.16.96.11/20" id="HTj_WNBuWgpRRIx-YaFq-18">
          <mxCell style="text;html=1;align=center;verticalAlign=middle;resizable=0;points=[];autosize=1;strokeColor=none;fillColor=none;" parent="1" vertex="1">
            <mxGeometry x="380" y="220" width="110" height="30" as="geometry" />
          </mxCell>
        </UserObject>
        <UserObject label="172.16.96.10/20" id="HTj_WNBuWgpRRIx-YaFq-19">
          <mxCell style="text;html=1;align=center;verticalAlign=middle;resizable=0;points=[];autosize=1;strokeColor=none;fillColor=none;" parent="1" vertex="1">
            <mxGeometry x="415" y="160" width="110" height="30" as="geometry" />
          </mxCell>
        </UserObject>
        <mxCell id="HTj_WNBuWgpRRIx-YaFq-20" value="eno3" style="text;html=1;align=center;verticalAlign=middle;resizable=0;points=[];autosize=1;strokeColor=none;fillColor=none;" parent="1" vertex="1">
          <mxGeometry x="570" y="240" width="50" height="30" as="geometry" />
        </mxCell>
        <mxCell id="zurEbsk4CzITmv-oLu3q-1" value="&lt;font style=&quot;font-size: 13px;&quot;&gt;1/0/2&lt;/font&gt;" style="text;html=1;align=center;verticalAlign=middle;resizable=0;points=[];autosize=1;strokeColor=none;fillColor=none;" parent="1" vertex="1">
          <mxGeometry x="621.11" y="490" width="50" height="30" as="geometry" />
        </mxCell>
        <mxCell id="zurEbsk4CzITmv-oLu3q-7" style="edgeStyle=orthogonalEdgeStyle;rounded=0;orthogonalLoop=1;jettySize=auto;html=1;exitX=0.25;exitY=1;exitDx=0;exitDy=0;entryX=0.5;entryY=0;entryDx=0;entryDy=0;" parent="1" source="zurEbsk4CzITmv-oLu3q-2" target="zurEbsk4CzITmv-oLu3q-6" edge="1">
          <mxGeometry relative="1" as="geometry" />
        </mxCell>
        <mxCell id="zurEbsk4CzITmv-oLu3q-10" style="edgeStyle=orthogonalEdgeStyle;rounded=0;orthogonalLoop=1;jettySize=auto;html=1;exitX=0.5;exitY=1;exitDx=0;exitDy=0;" parent="1" source="zurEbsk4CzITmv-oLu3q-2" target="zurEbsk4CzITmv-oLu3q-9" edge="1">
          <mxGeometry relative="1" as="geometry" />
        </mxCell>
        <mxCell id="zurEbsk4CzITmv-oLu3q-13" style="edgeStyle=orthogonalEdgeStyle;rounded=0;orthogonalLoop=1;jettySize=auto;html=1;exitX=0.75;exitY=1;exitDx=0;exitDy=0;entryX=0.5;entryY=0;entryDx=0;entryDy=0;" parent="1" source="zurEbsk4CzITmv-oLu3q-2" target="zurEbsk4CzITmv-oLu3q-12" edge="1">
          <mxGeometry relative="1" as="geometry" />
        </mxCell>
        <mxCell id="zurEbsk4CzITmv-oLu3q-2" value="" style="rounded=0;whiteSpace=wrap;html=1;" parent="1" vertex="1">
          <mxGeometry x="400" y="560" width="400" height="80" as="geometry" />
        </mxCell>
        <mxCell id="aOoxcMdrR6GTIn57Y4t1-25" style="edgeStyle=orthogonalEdgeStyle;rounded=0;orthogonalLoop=1;jettySize=auto;html=1;entryX=0.5;entryY=1;entryDx=0;entryDy=0;exitX=0.759;exitY=0.005;exitDx=0;exitDy=0;exitPerimeter=0;" parent="1" source="zurEbsk4CzITmv-oLu3q-2" target="HTj_WNBuWgpRRIx-YaFq-1" edge="1">
          <mxGeometry relative="1" as="geometry" />
        </mxCell>
        <mxCell id="zurEbsk4CzITmv-oLu3q-4" value="16&lt;br&gt;Trunk 300" style="text;html=1;align=center;verticalAlign=middle;resizable=0;points=[];autosize=1;strokeColor=none;fillColor=none;" parent="1" vertex="1">
          <mxGeometry x="660" y="565" width="80" height="40" as="geometry" />
        </mxCell>
        <mxCell id="zurEbsk4CzITmv-oLu3q-6" value="" style="image;html=1;image=img/lib/clip_art/computers/Laptop_128x128.png" parent="1" vertex="1">
          <mxGeometry x="410" y="710" width="80" height="80" as="geometry" />
        </mxCell>
        <mxCell id="zurEbsk4CzITmv-oLu3q-8" value="15 &lt;br&gt;vlan 300" style="text;html=1;align=center;verticalAlign=middle;resizable=0;points=[];autosize=1;strokeColor=none;fillColor=none;" parent="1" vertex="1">
          <mxGeometry x="455" y="605" width="70" height="40" as="geometry" />
        </mxCell>
        <mxCell id="zurEbsk4CzITmv-oLu3q-9" value="" style="image;html=1;image=img/lib/clip_art/networking/Wireless_Router_128x128.png" parent="1" vertex="1">
          <mxGeometry x="560" y="710" width="80" height="80" as="geometry" />
        </mxCell>
        <mxCell id="zurEbsk4CzITmv-oLu3q-11" value="14 &lt;br&gt;vlan 300" style="text;html=1;align=center;verticalAlign=middle;resizable=0;points=[];autosize=1;strokeColor=none;fillColor=none;" parent="1" vertex="1">
          <mxGeometry x="555" y="605" width="70" height="40" as="geometry" />
        </mxCell>
        <mxCell id="zurEbsk4CzITmv-oLu3q-12" value="Docker&lt;br&gt;170.206" style="rounded=0;whiteSpace=wrap;html=1;" parent="1" vertex="1">
          <mxGeometry x="680" y="720" width="120" height="60" as="geometry" />
        </mxCell>
        <mxCell id="zurEbsk4CzITmv-oLu3q-14" value="13 &lt;br&gt;vlan 300" style="text;html=1;align=center;verticalAlign=middle;resizable=0;points=[];autosize=1;strokeColor=none;fillColor=none;" parent="1" vertex="1">
          <mxGeometry x="660" y="605" width="70" height="40" as="geometry" />
        </mxCell>
        <mxCell id="zurEbsk4CzITmv-oLu3q-16" value="200.41 services and alias ip addresses&lt;br&gt;* DNS 172.16.96.10&lt;br&gt;* Web servers allowed in local VRF: &lt;br&gt;&lt;code&gt;&lt;font face=&quot;Helvetica&quot;&gt;&amp;nbsp;&amp;nbsp; 172.16.96.10 web-01.mettle.in&lt;br&gt;&amp;nbsp;&amp;nbsp; 172.16.112.10 web-02.mettle.in&lt;br&gt;&amp;nbsp;&amp;nbsp; 172.16.113.10 web-03.mettle.in&lt;br&gt;&amp;nbsp;&amp;nbsp; 172.16.114.10 acl-01.mettle.in&lt;br&gt;* SMTP port 587 and 25&lt;br&gt;* ACS server: &lt;/font&gt;&lt;/code&gt;&lt;code&gt;&lt;font face=&quot;Helvetica&quot;&gt;172.16.114.10&lt;/font&gt;&lt;/code&gt;" style="text;html=1;strokeColor=none;fillColor=none;align=left;verticalAlign=top;whiteSpace=wrap;rounded=0;" parent="1" vertex="1">
          <mxGeometry x="20" y="80" width="260" height="180" as="geometry" />
        </mxCell>
        <mxCell id="HP0-BixK6dYOUBE2eWDg-3" style="edgeStyle=orthogonalEdgeStyle;rounded=0;orthogonalLoop=1;jettySize=auto;html=1;exitX=0.25;exitY=1;exitDx=0;exitDy=0;curved=0;jumpStyle=none;strokeWidth=2;entryX=0.75;entryY=0;entryDx=0;entryDy=0;" parent="1" source="HP0-BixK6dYOUBE2eWDg-2" target="HTj_WNBuWgpRRIx-YaFq-1" edge="1">
          <mxGeometry relative="1" as="geometry">
            <mxPoint x="1010" y="375" as="sourcePoint" />
            <mxPoint x="695" y="455" as="targetPoint" />
          </mxGeometry>
        </mxCell>
        <mxCell id="HP0-BixK6dYOUBE2eWDg-13" value="VLAN16:vrf16, VLAN17:vrf17" style="edgeLabel;html=1;align=center;verticalAlign=middle;resizable=0;points=[];" parent="HP0-BixK6dYOUBE2eWDg-3" vertex="1" connectable="0">
          <mxGeometry x="-0.1242" y="2" relative="1" as="geometry">
            <mxPoint as="offset" />
          </mxGeometry>
        </mxCell>
        <mxCell id="HP0-BixK6dYOUBE2eWDg-2" value="North Router 2 126" style="rounded=0;whiteSpace=wrap;html=1;" parent="1" vertex="1">
          <mxGeometry x="860" y="240" width="200" height="80" as="geometry" />
        </mxCell>
        <mxCell id="HP0-BixK6dYOUBE2eWDg-4" value="&lt;div&gt;Radius&lt;br&gt;&lt;/div&gt;&lt;div&gt;192.168.200.122&lt;/div&gt;" style="rounded=0;whiteSpace=wrap;html=1;" parent="1" vertex="1">
          <mxGeometry x="80" y="390" width="120" height="40" as="geometry" />
        </mxCell>
        <mxCell id="aOoxcMdrR6GTIn57Y4t1-24" style="edgeStyle=orthogonalEdgeStyle;rounded=0;orthogonalLoop=1;jettySize=auto;html=1;exitX=1;exitY=0.5;exitDx=0;exitDy=0;entryX=0;entryY=0.5;entryDx=0;entryDy=0;startArrow=classicThin;startFill=1;" parent="1" source="HP0-BixK6dYOUBE2eWDg-5" target="HTj_WNBuWgpRRIx-YaFq-1" edge="1">
          <mxGeometry relative="1" as="geometry" />
        </mxCell>
        <mxCell id="aOoxcMdrR6GTIn57Y4t1-28" value="Management" style="edgeLabel;html=1;align=center;verticalAlign=middle;resizable=0;points=[];" parent="aOoxcMdrR6GTIn57Y4t1-24" vertex="1" connectable="0">
          <mxGeometry x="0.0068" relative="1" as="geometry">
            <mxPoint as="offset" />
          </mxGeometry>
        </mxCell>
        <mxCell id="HP0-BixK6dYOUBE2eWDg-5" value="&lt;div&gt;Portal&lt;/div&gt;&lt;div&gt;&lt;code&gt;192.168.200.67&lt;/code&gt;&lt;/div&gt;" style="rounded=0;whiteSpace=wrap;html=1;" parent="1" vertex="1">
          <mxGeometry x="80" y="450" width="120" height="40" as="geometry" />
        </mxCell>
        <mxCell id="HP0-BixK6dYOUBE2eWDg-8" value="eno1" style="text;html=1;align=center;verticalAlign=middle;resizable=0;points=[];autosize=1;strokeColor=none;fillColor=none;" parent="1" vertex="1">
          <mxGeometry x="535.11" y="460" width="50" height="30" as="geometry" />
        </mxCell>
        <mxCell id="HP0-BixK6dYOUBE2eWDg-11" style="edgeStyle=orthogonalEdgeStyle;rounded=0;orthogonalLoop=1;jettySize=auto;html=1;exitX=0.25;exitY=1;exitDx=0;exitDy=0;entryX=0.25;entryY=0;entryDx=0;entryDy=0;" parent="1" source="HP0-BixK6dYOUBE2eWDg-9" target="HP0-BixK6dYOUBE2eWDg-2" edge="1">
          <mxGeometry relative="1" as="geometry" />
        </mxCell>
        <mxCell id="aOoxcMdrR6GTIn57Y4t1-33" value="north00" style="edgeLabel;html=1;align=center;verticalAlign=middle;resizable=0;points=[];" parent="HP0-BixK6dYOUBE2eWDg-11" vertex="1" connectable="0">
          <mxGeometry x="0.0028" relative="1" as="geometry">
            <mxPoint as="offset" />
          </mxGeometry>
        </mxCell>
        <mxCell id="HP0-BixK6dYOUBE2eWDg-9" value="NS21 127" style="rounded=0;whiteSpace=wrap;html=1;" parent="1" vertex="1">
          <mxGeometry x="795" y="80" width="125" height="40" as="geometry" />
        </mxCell>
        <mxCell id="HP0-BixK6dYOUBE2eWDg-12" style="edgeStyle=orthogonalEdgeStyle;rounded=0;orthogonalLoop=1;jettySize=auto;html=1;exitX=0.75;exitY=1;exitDx=0;exitDy=0;entryX=0.75;entryY=0;entryDx=0;entryDy=0;" parent="1" source="HP0-BixK6dYOUBE2eWDg-10" target="HP0-BixK6dYOUBE2eWDg-2" edge="1">
          <mxGeometry relative="1" as="geometry" />
        </mxCell>
        <mxCell id="aOoxcMdrR6GTIn57Y4t1-34" value="north01" style="edgeLabel;html=1;align=center;verticalAlign=middle;resizable=0;points=[];" parent="HP0-BixK6dYOUBE2eWDg-12" vertex="1" connectable="0">
          <mxGeometry x="0.0135" y="1" relative="1" as="geometry">
            <mxPoint as="offset" />
          </mxGeometry>
        </mxCell>
        <mxCell id="HP0-BixK6dYOUBE2eWDg-10" value="NS22 128" style="rounded=0;whiteSpace=wrap;html=1;" parent="1" vertex="1">
          <mxGeometry x="1000" y="80" width="120" height="40" as="geometry" />
        </mxCell>
        <mxCell id="aOoxcMdrR6GTIn57Y4t1-2" value="172.16.200.103/24" style="text;html=1;align=center;verticalAlign=middle;resizable=0;points=[];autosize=1;strokeColor=none;fillColor=none;" parent="1" vertex="1">
          <mxGeometry x="421.11" y="470" width="120" height="30" as="geometry" />
        </mxCell>
        <mxCell id="aOoxcMdrR6GTIn57Y4t1-3" value="Mgmt DNS&lt;div&gt;1923168.3.100&lt;br&gt;&lt;/div&gt;" style="rounded=0;whiteSpace=wrap;html=1;" parent="1" vertex="1">
          <mxGeometry x="80" y="510" width="120" height="40" as="geometry" />
        </mxCell>
        <mxCell id="aOoxcMdrR6GTIn57Y4t1-5" value="Sub DNS&lt;div&gt;8.8.8.8&lt;br&gt;&lt;/div&gt;" style="rounded=0;whiteSpace=wrap;html=1;" parent="1" vertex="1">
          <mxGeometry x="600" y="10" width="120" height="40" as="geometry" />
        </mxCell>
        <mxCell id="aOoxcMdrR6GTIn57Y4t1-9" value="&lt;div&gt;North2 10.16.200.2/24&lt;/div&gt;&lt;div&gt;VLAN16: 10.160.200.2/24&lt;/div&gt;&lt;div&gt;VLAN17: 10.170.200.2/24&lt;/div&gt;" style="text;html=1;align=left;verticalAlign=top;resizable=0;points=[];autosize=1;strokeColor=none;fillColor=none;" parent="1" vertex="1">
          <mxGeometry x="755" y="395" width="160" height="60" as="geometry" />
        </mxCell>
        <mxCell id="aOoxcMdrR6GTIn57Y4t1-10" value="&lt;div&gt;10.16.200.1/24&lt;/div&gt;&lt;div&gt;VLAN16: 10.160.200.1/24&lt;/div&gt;&lt;div&gt;VLAN17: 10.170.200.1/24&lt;/div&gt;" style="text;html=1;align=left;verticalAlign=bottom;resizable=0;points=[];autosize=1;strokeColor=none;fillColor=none;" parent="1" vertex="1">
          <mxGeometry x="925" y="320" width="160" height="60" as="geometry" />
        </mxCell>
        <UserObject label="10.16.96.11/20" id="aOoxcMdrR6GTIn57Y4t1-11">
          <mxCell style="text;html=1;align=center;verticalAlign=middle;resizable=0;points=[];autosize=1;strokeColor=none;fillColor=none;" parent="1" vertex="1">
            <mxGeometry x="807.5" y="220" width="100" height="30" as="geometry" />
          </mxCell>
        </UserObject>
        <UserObject label="10.16.96.10/20" id="aOoxcMdrR6GTIn57Y4t1-12">
          <mxCell style="text;html=1;align=center;verticalAlign=middle;resizable=0;points=[];autosize=1;strokeColor=none;fillColor=none;" parent="1" vertex="1">
            <mxGeometry x="830" y="120" width="100" height="30" as="geometry" />
          </mxCell>
        </UserObject>
        <UserObject label="10.17.96.10/20" id="aOoxcMdrR6GTIn57Y4t1-13">
          <mxCell style="text;html=1;align=center;verticalAlign=middle;resizable=0;points=[];autosize=1;strokeColor=none;fillColor=none;" parent="1" vertex="1">
            <mxGeometry x="995" y="120" width="100" height="30" as="geometry" />
          </mxCell>
        </UserObject>
        <UserObject label="10.17.96.11/20" id="aOoxcMdrR6GTIn57Y4t1-14">
          <mxCell style="text;html=1;align=center;verticalAlign=middle;resizable=0;points=[];autosize=1;strokeColor=none;fillColor=none;" parent="1" vertex="1">
            <mxGeometry x="1020" y="220" width="100" height="30" as="geometry" />
          </mxCell>
        </UserObject>
        <mxCell id="aOoxcMdrR6GTIn57Y4t1-15" value="enp2s0-vrf16" style="text;html=1;align=center;verticalAlign=middle;resizable=0;points=[];autosize=1;strokeColor=none;fillColor=none;" parent="1" vertex="1">
          <mxGeometry x="860" y="240" width="90" height="30" as="geometry" />
        </mxCell>
        <mxCell id="aOoxcMdrR6GTIn57Y4t1-16" value="enp4s0-vrf17" style="text;html=1;align=center;verticalAlign=middle;resizable=0;points=[];autosize=1;strokeColor=none;fillColor=none;" parent="1" vertex="1">
          <mxGeometry x="960" y="240" width="90" height="30" as="geometry" />
        </mxCell>
        <mxCell id="aOoxcMdrR6GTIn57Y4t1-17" value="enp2s0" style="text;html=1;align=center;verticalAlign=middle;resizable=0;points=[];autosize=1;strokeColor=none;fillColor=none;" parent="1" vertex="1">
          <mxGeometry x="800" y="100" width="60" height="30" as="geometry" />
        </mxCell>
        <mxCell id="aOoxcMdrR6GTIn57Y4t1-18" value="enp2s0" style="text;html=1;align=center;verticalAlign=middle;resizable=0;points=[];autosize=1;strokeColor=none;fillColor=none;" parent="1" vertex="1">
          <mxGeometry x="1060" y="100" width="60" height="30" as="geometry" />
        </mxCell>
        <mxCell id="aOoxcMdrR6GTIn57Y4t1-19" value="enp9s0" style="text;html=1;align=center;verticalAlign=middle;resizable=0;points=[];autosize=1;strokeColor=none;fillColor=none;" parent="1" vertex="1">
          <mxGeometry x="875" y="300" width="60" height="30" as="geometry" />
        </mxCell>
        <mxCell id="aOoxcMdrR6GTIn57Y4t1-22" style="edgeStyle=orthogonalEdgeStyle;rounded=0;orthogonalLoop=1;jettySize=auto;html=1;exitX=1;exitY=0.5;exitDx=0;exitDy=0;entryX=0.997;entryY=0.625;entryDx=0;entryDy=0;entryPerimeter=0;startArrow=classicThin;startFill=1;" parent="1" source="HP0-BixK6dYOUBE2eWDg-4" target="aOoxcMdrR6GTIn57Y4t1-3" edge="1">
          <mxGeometry relative="1" as="geometry">
            <Array as="points">
              <mxPoint x="240" y="410" />
              <mxPoint x="240" y="535" />
            </Array>
          </mxGeometry>
        </mxCell>
        <mxCell id="aOoxcMdrR6GTIn57Y4t1-26" value="4&lt;font style=&quot;font-size: 13px;&quot;&gt;/0/0&lt;/font&gt;" style="text;html=1;align=center;verticalAlign=middle;resizable=0;points=[];autosize=1;strokeColor=none;fillColor=none;" parent="1" vertex="1">
          <mxGeometry x="671.11" y="430" width="50" height="30" as="geometry" />
        </mxCell>
        <mxCell id="aOoxcMdrR6GTIn57Y4t1-35" value="ASN: 65000" style="text;html=1;align=left;verticalAlign=bottom;whiteSpace=wrap;rounded=0;fontColor=#FF66FF;" parent="1" vertex="1">
          <mxGeometry x="746.11" y="455" width="95" height="30" as="geometry" />
        </mxCell>
        <mxCell id="aOoxcMdrR6GTIn57Y4t1-36" value="ASN: 65010" style="text;html=1;align=left;verticalAlign=bottom;whiteSpace=wrap;rounded=0;fontColor=#FF66FF;" parent="1" vertex="1">
          <mxGeometry x="652.5" y="260" width="95" height="30" as="geometry" />
        </mxCell>
        <mxCell id="aOoxcMdrR6GTIn57Y4t1-37" value="ASN: 65020" style="text;html=1;align=left;verticalAlign=bottom;whiteSpace=wrap;rounded=0;fontColor=#FF66FF;" parent="1" vertex="1">
          <mxGeometry x="1060" y="260" width="95" height="30" as="geometry" />
        </mxCell>
        <mxCell id="aOoxcMdrR6GTIn57Y4t1-38" value="ASN: 65021" style="text;html=1;align=left;verticalAlign=bottom;whiteSpace=wrap;rounded=0;fontColor=#FF66FF;" parent="1" vertex="1">
          <mxGeometry x="820" y="50" width="95" height="30" as="geometry" />
        </mxCell>
        <mxCell id="aOoxcMdrR6GTIn57Y4t1-39" value="ASN: 65022" style="text;html=1;align=left;verticalAlign=bottom;whiteSpace=wrap;rounded=0;fontColor=#FF66FF;" parent="1" vertex="1">
          <mxGeometry x="1012.5" y="50" width="95" height="30" as="geometry" />
        </mxCell>
        <mxCell id="rFpsRoMvYFNI6Afw7lki-1" value="NS03 - 129" style="rounded=0;whiteSpace=wrap;html=1;" vertex="1" parent="1">
          <mxGeometry x="900" y="10" width="120" height="40" as="geometry" />
        </mxCell>
        <mxCell id="rFpsRoMvYFNI6Afw7lki-7" value="enp3s0" style="text;html=1;align=center;verticalAlign=middle;resizable=0;points=[];autosize=1;strokeColor=none;fillColor=none;" vertex="1" parent="1">
          <mxGeometry x="930" y="100" width="60" height="30" as="geometry" />
        </mxCell>
        <mxCell id="rFpsRoMvYFNI6Afw7lki-10" style="edgeStyle=orthogonalEdgeStyle;rounded=0;orthogonalLoop=1;jettySize=auto;html=1;exitX=1;exitY=0.5;exitDx=0;exitDy=0;entryX=0.344;entryY=0.987;entryDx=0;entryDy=0;entryPerimeter=0;" edge="1" parent="1" source="HP0-BixK6dYOUBE2eWDg-9" target="rFpsRoMvYFNI6Afw7lki-1">
          <mxGeometry relative="1" as="geometry" />
        </mxCell>
        <mxCell id="rFpsRoMvYFNI6Afw7lki-12" style="edgeStyle=orthogonalEdgeStyle;rounded=0;orthogonalLoop=1;jettySize=auto;html=1;exitX=0;exitY=0.5;exitDx=0;exitDy=0;entryX=0.665;entryY=1.015;entryDx=0;entryDy=0;entryPerimeter=0;" edge="1" parent="1" source="HP0-BixK6dYOUBE2eWDg-10" target="rFpsRoMvYFNI6Afw7lki-1">
          <mxGeometry relative="1" as="geometry" />
        </mxCell>
        <mxCell id="rFpsRoMvYFNI6Afw7lki-13" value="enp3" style="text;html=1;align=center;verticalAlign=top;resizable=0;points=[];autosize=1;strokeColor=none;fillColor=none;" vertex="1" parent="1">
          <mxGeometry x="912.5" y="30" width="50" height="30" as="geometry" />
        </mxCell>
        <mxCell id="rFpsRoMvYFNI6Afw7lki-14" value="enp5" style="text;html=1;align=center;verticalAlign=top;resizable=0;points=[];autosize=1;strokeColor=none;fillColor=none;" vertex="1" parent="1">
          <mxGeometry x="950" y="30" width="50" height="30" as="geometry" />
        </mxCell>
        <UserObject label="10.20.20.0/24" id="rFpsRoMvYFNI6Afw7lki-15">
          <mxCell style="text;html=1;align=center;verticalAlign=middle;resizable=0;points=[];autosize=1;strokeColor=none;fillColor=none;fontColor=#EA6B66;" vertex="1" parent="1">
            <mxGeometry x="800" y="30" width="100" height="30" as="geometry" />
          </mxCell>
        </UserObject>
        <UserObject label="10.20.21.0/24" id="rFpsRoMvYFNI6Afw7lki-16">
          <mxCell style="text;html=1;align=center;verticalAlign=middle;resizable=0;points=[];autosize=1;strokeColor=none;fillColor=none;fontColor=#EA6B66;" vertex="1" parent="1">
            <mxGeometry x="1007.5" y="30" width="100" height="30" as="geometry" />
          </mxCell>
        </UserObject>
        <UserObject label="1" id="rFpsRoMvYFNI6Afw7lki-17">
          <mxCell style="text;html=1;align=center;verticalAlign=middle;resizable=0;points=[];autosize=1;strokeColor=none;fillColor=none;fontColor=#EA6B66;" vertex="1" parent="1">
            <mxGeometry x="912.5" y="80" width="30" height="30" as="geometry" />
          </mxCell>
        </UserObject>
        <UserObject label="2" id="rFpsRoMvYFNI6Afw7lki-18">
          <mxCell style="text;html=1;align=center;verticalAlign=middle;resizable=0;points=[];autosize=1;strokeColor=none;fillColor=none;fontColor=#EA6B66;" vertex="1" parent="1">
            <mxGeometry x="912.5" y="50" width="30" height="30" as="geometry" />
          </mxCell>
        </UserObject>
        <UserObject label="1" id="rFpsRoMvYFNI6Afw7lki-19">
          <mxCell style="text;html=1;align=center;verticalAlign=middle;resizable=0;points=[];autosize=1;strokeColor=none;fillColor=none;fontColor=#EA6B66;" vertex="1" parent="1">
            <mxGeometry x="977.5" y="80" width="30" height="30" as="geometry" />
          </mxCell>
        </UserObject>
        <UserObject label="2" id="rFpsRoMvYFNI6Afw7lki-20">
          <mxCell style="text;html=1;align=center;verticalAlign=middle;resizable=0;points=[];autosize=1;strokeColor=none;fillColor=none;fontColor=#EA6B66;" vertex="1" parent="1">
            <mxGeometry x="977.5" y="50" width="30" height="30" as="geometry" />
          </mxCell>
        </UserObject>
        <UserObject label="10.20.22.1/24" id="rFpsRoMvYFNI6Afw7lki-21">
          <mxCell style="text;html=1;align=center;verticalAlign=bottom;resizable=0;points=[];autosize=1;strokeColor=none;fillColor=none;fontColor=#EA6B66;" vertex="1" parent="1">
            <mxGeometry x="915" width="100" height="30" as="geometry" />
          </mxCell>
        </UserObject>
      </root>
    </mxGraphModel>
  </diagram>
</mxfile>
